<svg width="59" height="58" viewBox="0 0 59 58" fill="none" xmlns="http://www.w3.org/2000/svg">
<rect x="53.1752" y="57.3036" width="56.3758" height="4.85928" rx="2.42964" transform="rotate(-90 53.1752 57.3036)" fill="#E9EDF7"/>
<rect x="53.1752" y="57.3036" width="13.4435" height="4.85928" rx="2.42964" transform="rotate(-90 53.1752 57.3036)" fill="#63AAE6"/>
<rect x="39.9458" y="57.3036" width="56.3758" height="4.85923" rx="2.42962" transform="rotate(-90 39.9458 57.3036)" fill="#E9EDF7"/>
<rect x="39.9458" y="57.3036" width="51.1719" height="4.85929" rx="2.42965" transform="rotate(-90 39.9458 57.3036)" fill="#63AAE6"/>
<rect x="26.7169" y="57.3036" width="56.3758" height="4.85929" rx="2.42965" transform="rotate(-90 26.7169 57.3036)" fill="#E9EDF7"/>
<rect x="26.7169" y="57.3036" width="39.0294" height="4.85929" rx="2.42965" transform="rotate(-90 26.7169 57.3036)" fill="#63AAE6"/>
<rect x="13.4882" y="57.3036" width="56.3758" height="4.85928" rx="2.42964" transform="rotate(-90 13.4882 57.3036)" fill="#E9EDF7"/>
<rect x="13.4882" y="57.3036" width="29.0552" height="4.8593" rx="2.42965" transform="rotate(-90 13.4882 57.3036)" fill="#63AAE6"/>
<rect x="0.258667" y="57.3036" width="56.3758" height="4.85928" rx="2.42964" transform="rotate(-90 0.258667 57.3036)" fill="#E9EDF7"/>
<path d="M2.68831 57.3036C1.34646 57.3036 0.258667 56.2158 0.258667 54.874L0.258663 13.3316C0.258663 11.9898 1.34645 10.902 2.68831 10.902V10.902C4.03017 10.902 5.11796 11.9898 5.11796 13.3316L5.11796 54.874C5.11796 56.2158 4.03017 57.3036 2.68831 57.3036V57.3036Z" fill="#63AAE6"/>
</svg>
