<svg width="20" height="20" viewBox="0 0 20 20" fill="none" xmlns="http://www.w3.org/2000/svg">
<path d="M2.28405 6.31355H2.55773C3.6114 6.31355 4.47349 7.17564 4.47349 8.22931V17.8081C4.47349 18.8618 3.6114 19.7239 2.55773 19.7239H2.28405C1.23038 19.7239 0.368286 18.8618 0.368286 17.8081V8.22931C0.368286 7.17564 1.23038 6.31355 2.28405 6.31355V6.31355ZM9.94711 0.566254C11.0008 0.566254 11.8629 1.42835 11.8629 2.48202V17.8081C11.8629 18.8618 11.0008 19.7239 9.94711 19.7239C8.89344 19.7239 8.03134 18.8618 8.03134 17.8081V2.48202C8.03134 1.42835 8.89344 0.566254 9.94711 0.566254ZM17.6102 11.5135C18.6638 11.5135 19.5259 12.3756 19.5259 13.4292V17.8081C19.5259 18.8618 18.6638 19.7239 17.6102 19.7239C16.5565 19.7239 15.6944 18.8618 15.6944 17.8081V13.4292C15.6944 12.3756 16.5565 11.5135 17.6102 11.5135V11.5135Z" fill="#63AAE6"/>
</svg>
